<?xml version="1.0" standalone="no"?>
<!DOCTYPE svg PUBLIC "-//W3C//DTD SVG 20010904//EN"
 "http://www.w3.org/TR/2001/REC-SVG-20010904/DTD/svg10.dtd">
<svg version="1.0" xmlns="http://www.w3.org/2000/svg"
 width="225.000000pt" height="225.000000pt" viewBox="0 0 225.000000 225.000000"
 preserveAspectRatio="xMidYMid meet">

<g transform="translate(0.000000,225.000000) scale(0.100000,-0.100000)"
fill="#000000" stroke="none">
<path d="M770 1631 c-46 -49 -70 -129 -70 -238 0 -102 23 -174 71 -225 70 -74
148 -34 189 98 45 148 5 345 -80 389 -46 24 -70 18 -110 -24z"/>
<path d="M1368 1655 c-78 -43 -121 -232 -84 -370 47 -180 163 -208 237 -58 21
42 24 63 24 168 0 105 -3 126 -24 173 -26 58 -71 102 -104 102 -12 -1 -34 -7
-49 -15z"/>
<path d="M548 976 c-80 -29 -117 -74 -132 -161 l-8 -40 31 29 c19 18 34 26 39
20 5 -5 33 -40 62 -78 105 -134 280 -247 437 -282 109 -24 273 -16 371 19 41
14 99 41 130 59 71 42 199 162 248 233 20 30 40 55 43 55 3 0 20 -15 39 -32
l34 -33 -7 40 c-15 85 -58 138 -134 163 -73 25 -79 16 -27 -37 l49 -49 -22
-31 c-12 -16 -46 -52 -76 -78 -129 -115 -276 -173 -456 -181 -235 -10 -415 57
-578 214 l-76 73 55 55 c58 60 53 69 -22 42z"/>
</g>
</svg>
